<svg id="Layer_1" xmlns="http://www.w3.org/2000/svg" width="42" height="43" viewBox="0 0 42 43"><style>.st0{fill:#e10816}</style><path class="st0" d="M13 40.1h16V43H13zM41.9 3.4h-8.7c.2-2.1.2-3.4.2-3.4H8.6s0 1.3.2 3.4H.1s-.9 7.7 4.3 13.5c2.9 3.2 6.3 4.8 8.9 5.6.8 1.5 1.8 2.6 2.9 3.7 1.5 1.6 2.8 2.6 2.8 5 0 4.6-4 5.3-4 5.3v2.4h12.1v-2.4s-4-.7-4-5.3c0-2.4 1.2-3.4 2.7-5 1.1-1.1 2.1-2.2 2.9-3.7 2.6-.8 6-2.3 8.9-5.6 5.3-5.8 4.3-13.5 4.3-13.5zm-35.8 12c-1.8-2-3-4.6-3.5-7.6-.2-.8-.2-1.5-.3-2.1H9c.4 4 1.2 9.3 2.9 13.8-2.2-.9-4.2-2.3-5.8-4.1zm18.1-2.6l1.3 5.2-4.5-2.8-4.5 2.8 1.3-5.2-4.1-3.4L19 9l2-5 2 5 5.4.4-4.2 3.4zm11.7 2.6c-1.6 1.8-3.6 3.2-5.8 4.2 1.7-4.5 2.5-9.8 2.9-13.8h6.6c-.1 2.3-.8 6.3-3.7 9.6z"/></svg>