<svg id="Layer_1" xmlns="http://www.w3.org/2000/svg" width="51" height="47" viewBox="0 0 51 47"><style>.st0{fill:#e10816}</style><path class="st0" d="M29.2 47v-9.4c0-3.3 1.9-5.1 4.8-7 2.8-1.9 3.9-2.6 4.7-3 .7-.4 1.6-2.4 2.5-3.7 1.1-1.7 2.3-3 3.5-2.4 1.2.6.8 2.3-.1 3.7-1 1.4-2.9 5.5-2.9 5.5l3.8-2.5 2-4.9.6-3.5s-.3-2.8-.3-3.9.7-1.8 1.2-1.9c.5-.1.9 1.2 1.2 2.2.3 1.1.9 3 .9 3l-.2 5.3-2.8 8-10.3 9.4c-.5.5-.8 1.1-.8 1.8V47h-7.8zm-7.4 0v-9.4c0-3.3-1.9-5.1-4.8-7s-3.9-2.6-4.7-3c-.7-.4-1.6-2.4-2.5-3.7-1.1-1.7-2.3-3-3.5-2.4s-.8 2.3.1 3.7 2.9 5.5 2.9 5.5l-3.8-2.5-2-4.9-.5-3.6s.3-2.8.3-3.9-.7-1.8-1.2-1.9c-.5-.1-.9 1.2-1.2 2.2-.3 1.1-.9 3-.9 3l.2 5.3 2.8 8 10.3 9.4c.5.5.8 1.1.8 1.8V47h7.7z"/><ellipse class="st0" cx="24.9" cy="11.9" rx="6" ry="6"/><path class="st0" d="M34.7 11.9l2.2-2.4L34 8.2l1.1-3-3.3-.2-.1-3.2-3 1.1L27.3 0l-2.4 2.2L22.5 0l-1.4 2.9-3-1.1L18 5l-3.2.1 1.1 3L13 9.5l2.2 2.4-2.2 2.4 2.9 1.3-1.1 3 3.2.1.1 3.2 3-1.1 1.4 2.9 2.4-2.2 2.4 2.2 1.4-2.9 3 1.1.1-3.2 3.2-.1-1.1-3 2.9-1.3-2.1-2.4zm-9.8 7.8c-4.3 0-7.8-3.5-7.8-7.8s3.5-7.8 7.8-7.8 7.8 3.5 7.8 7.8-3.5 7.8-7.8 7.8z"/><path class="st0" d="M31.8 18.8L25 20l-7-1.2-3.5 7.4 4.6-1 1.9 4.4 3.9-8 4.9 7.6 1.5-4.6 4.6.5z"/></svg>