<svg id="Layer_1" xmlns="http://www.w3.org/2000/svg" width="42" height="45" viewBox="0 0 42 45"><style>.st0{fill:#e10816}</style><path class="st0" d="M21 19.4c-11.6 0-21 9.4-21 20.9v1.6h7.6v-3.2H3.3c.3-3.6 1.7-6.8 3.9-9.4l3.2 3.2 2.3-2.3L9.4 27c2.7-2.3 6.2-3.9 10-4.2v4.8h3.2v-4.8c8.5.8 15.3 7.5 16.1 16h-5.1V42H42v-1.6c0-11.6-9.4-21-21-21z"/><path class="st0" d="M17.9 37c-1.1.8-1.9 2.1-1.9 3.6 0 2.4 2 4.4 4.4 4.4 1.5 0 2.8-.7 3.6-1.8.3-.4.4-.8.6-1.2l5.5-11.3-11.3 5.9c-.3.1-.6.2-.9.4zm0-21.2h6.2V8.4h3.6L21 0l-6.7 8.4h3.6zm14.1 2l5.4 3.2v-6.4h3.2l-5.9-7.4-5.8 7.4H32zM4.6 21l5.4-3.2v-3.2h3.1L7.3 7.2l-5.9 7.4h3.2z"/></svg>