<?xml version="1.0" encoding="utf-8"?>
<!-- Generator: Adobe Illustrator 19.2.1, SVG Export Plug-In . SVG Version: 6.00 Build 0)  -->
<svg version="1.1" id="Layer_1" xmlns="http://www.w3.org/2000/svg" xmlns:xlink="http://www.w3.org/1999/xlink" x="0px" y="0px"
	 width="45px" height="45px" viewBox="0 0 45 45" style="enable-background:new 0 0 45 45;" xml:space="preserve">
<style type="text/css">
	.st0{fill:#E10816;}
</style>
<polygon class="st0" points="19.1,19.1 3.9,19.1 19.1,3.9 "/>
<rect x="3.5" y="0.8" transform="matrix(0.7071 -0.7071 0.7071 0.7071 -3.0617 7.3917)" class="st0" width="7.8" height="13.1"/>
<polygon class="st0" points="25.9,19.1 41.1,19.1 25.9,3.9 "/>
<rect x="33.7" y="0.8" transform="matrix(-0.7071 -0.7071 0.7071 -0.7071 58.9747 39.2115)" class="st0" width="7.8" height="13.1"/>
<polygon class="st0" points="25.9,25.9 41.1,25.9 25.9,41.1 "/>
<rect x="33.7" y="31" transform="matrix(-0.7071 0.7071 -0.7071 -0.7071 90.7945 37.6083)" class="st0" width="7.8" height="13.1"/>
<polygon class="st0" points="19.1,25.9 3.9,25.9 19.1,41.1 "/>
<rect x="3.5" y="31" transform="matrix(0.7071 0.7071 -0.7071 0.7071 28.7581 5.7885)" class="st0" width="7.8" height="13.1"/>
</svg>
