<?xml version="1.0" encoding="utf-8"?>
<!-- Generator: Adobe Illustrator 19.2.1, SVG Export Plug-In . SVG Version: 6.00 Build 0)  -->
<svg version="1.1" id="Layer_1" xmlns="http://www.w3.org/2000/svg" xmlns:xlink="http://www.w3.org/1999/xlink" x="0px" y="0px"
	 width="42px" height="43px" viewBox="0 0 42 43" style="enable-background:new 0 0 42 43;" xml:space="preserve">
<style type="text/css">
	.st0{fill:#E10816;}
</style>
<g>
	<rect x="13" y="40.1" class="st0" width="16" height="2.9"/>
	<path class="st0" d="M41.9,3.4h-8.7C33.4,1.3,33.4,0,33.4,0H8.6c0,0,0,1.3,0.2,3.4H0.1c0,0-0.9,7.7,4.3,13.5
		c2.9,3.2,6.3,4.8,8.9,5.6c0.8,1.5,1.8,2.6,2.9,3.7h0c1.5,1.6,2.8,2.6,2.8,5c0,4.6-4,5.3-4,5.3v2.4h12.1v-2.4c0,0-4-0.7-4-5.3
		c0-2.4,1.2-3.4,2.7-5h0c1.1-1.1,2.1-2.2,2.9-3.7c2.6-0.8,6-2.3,8.9-5.6C42.9,11.1,41.9,3.4,41.9,3.4z M6.1,15.4
		c-1.8-2-3-4.6-3.5-7.6C2.4,7,2.4,6.3,2.3,5.7H9c0.4,4,1.2,9.3,2.9,13.8C9.7,18.6,7.7,17.2,6.1,15.4z M24.2,12.8l1.3,5.2L21,15.2
		L16.5,18l1.3-5.2l-4.1-3.4L19,9l2-5l2,5l5.4,0.4L24.2,12.8z M35.9,15.4c-1.6,1.8-3.6,3.2-5.8,4.2c1.7-4.5,2.5-9.8,2.9-13.8h6.6
		C39.5,8.1,38.8,12.1,35.9,15.4z"/>
</g>
</svg>
