<?xml version="1.0" encoding="utf-8"?>
<!-- Generator: Adobe Illustrator 19.2.1, SVG Export Plug-In . SVG Version: 6.00 Build 0)  -->
<svg version="1.1" id="Layer_1" xmlns="http://www.w3.org/2000/svg" xmlns:xlink="http://www.w3.org/1999/xlink" x="0px" y="0px"
	 width="51px" height="47px" viewBox="0 0 51 47" style="enable-background:new 0 0 51 47;" xml:space="preserve">
<style type="text/css">
	.st0{fill:#E10816;}
</style>
<path class="st0" d="M29.2,47c0,0,0-6.1,0-9.4s1.9-5.1,4.8-7c2.8-1.9,3.9-2.6,4.7-3c0.7-0.4,1.6-2.4,2.5-3.7c1.1-1.7,2.3-3,3.5-2.4
	c1.2,0.6,0.8,2.3-0.1,3.7c-1,1.4-2.9,5.5-2.9,5.5l3.8-2.5l2-4.9l0.6-3.5c0,0-0.3-2.8-0.3-3.9s0.7-1.8,1.2-1.9
	c0.5-0.1,0.9,1.2,1.2,2.2c0.3,1.1,0.9,3,0.9,3l-0.2,5.3l-2.8,8l-10.3,9.4c-0.5,0.5-0.8,1.1-0.8,1.8V47H29.2z"/>
<path class="st0" d="M21.8,47c0,0,0-6.1,0-9.4s-1.9-5.1-4.8-7s-3.9-2.6-4.7-3c-0.7-0.4-1.6-2.4-2.5-3.7c-1.1-1.7-2.3-3-3.5-2.4
	s-0.8,2.3,0.1,3.7s2.9,5.5,2.9,5.5l-3.8-2.5l-2-4.9L3,19.7c0,0,0.3-2.8,0.3-3.9c0-1.1-0.7-1.8-1.2-1.9c-0.5-0.1-0.9,1.2-1.2,2.2
	c-0.3,1.1-0.9,3-0.9,3l0.2,5.3l2.8,8l10.3,9.4c0.5,0.5,0.8,1.1,0.8,1.8V47H21.8z"/>
<g>
	<ellipse class="st0" cx="24.9" cy="11.9" rx="6" ry="6"/>
	<path class="st0" d="M34.7,11.9l2.2-2.4l-2.9-1.3l1.1-3L31.8,5l-0.1-3.2l-3,1.1L27.3,0l-2.4,2.2L22.5,0l-1.4,2.9l-3-1.1L18,5
		l-3.2,0.1l1.1,3L13,9.5l2.2,2.4L13,14.3l2.9,1.3l-1.1,3l3.2,0.1l0.1,3.2l3-1.1l1.4,2.9l2.4-2.2l2.4,2.2l1.4-2.9l3,1.1l0.1-3.2
		l3.2-0.1l-1.1-3l2.9-1.3L34.7,11.9z M24.9,19.7c-4.3,0-7.8-3.5-7.8-7.8s3.5-7.8,7.8-7.8c4.3,0,7.8,3.5,7.8,7.8S29.2,19.7,24.9,19.7
		z"/>
</g>
<polygon class="st0" points="31.8,18.8 25,20 18,18.8 14.5,26.2 19.1,25.2 21,29.6 24.9,21.6 29.8,29.2 31.3,24.6 35.9,25.1 "/>
</svg>
