<?xml version="1.0" encoding="utf-8"?>
<!-- Generator: Adobe Illustrator 19.2.1, SVG Export Plug-In . SVG Version: 6.00 Build 0)  -->
<svg version="1.1" id="Layer_1" xmlns="http://www.w3.org/2000/svg" xmlns:xlink="http://www.w3.org/1999/xlink" x="0px" y="0px"
	 width="42px" height="45px" viewBox="0 0 42 45" style="enable-background:new 0 0 42 45;" xml:space="preserve">
<style type="text/css">
	.st0{fill:#E10816;}
</style>
<g>
	<path class="st0" d="M21,19.4c-11.6,0-21,9.4-21,20.9v1.6h7.6v-3.2H3.3c0.3-3.6,1.7-6.8,3.9-9.4l3.2,3.2l2.3-2.3L9.4,27
		c2.7-2.3,6.2-3.9,10-4.2v4.8h3.2v-4.8c8.5,0.8,15.3,7.5,16.1,16h-5.1v3.2H42v-1.6C42,28.8,32.6,19.4,21,19.4z"/>
	<path class="st0" d="M17.9,37L17.9,37L17.9,37c-1.1,0.8-1.9,2.1-1.9,3.6c0,2.4,2,4.4,4.4,4.4c1.5,0,2.8-0.7,3.6-1.8l0,0l0,0
		c0.3-0.4,0.4-0.8,0.6-1.2l5.5-11.3l-11.3,5.9C18.5,36.7,18.2,36.8,17.9,37z"/>
	<polygon class="st0" points="17.9,15.8 24.1,15.8 24.1,8.4 27.7,8.4 21,0 14.3,8.4 17.9,8.4 	"/>
	<polygon class="st0" points="32,17.8 37.4,21 37.4,14.6 40.6,14.6 34.7,7.2 28.9,14.6 32,14.6 	"/>
	<polygon class="st0" points="4.6,21 10,17.8 10,14.6 13.1,14.6 7.3,7.2 1.4,14.6 4.6,14.6 	"/>
</g>
</svg>
